<svg width="78" height="60" viewBox="0 0 78 60" fill="none" xmlns="http://www.w3.org/2000/svg">
<g clip-path="url(#clip0_1217_6637)" filter="url(#filter0_d_1217_6637)">
<path d="M12 12H66V48H12V12Z" fill="#10338C"/>
<path d="M35.3894 29.9684C35.421 29.9368 35.4421 29.9053 35.4736 29.8737C35.4526 29.9053 35.421 29.9368 35.3894 29.9684ZM31.7894 34.3789L32.9473 36.7895L35.5473 36.1895L34.3894 38.5895L36.4842 40.2526L33.8736 40.8421L33.8842 43.5158L31.7894 41.8421L29.7052 43.5158L29.7158 40.8421L27.1052 40.2526L29.2 38.5895L28.0315 36.1895L30.6421 36.7895L31.7894 34.3789ZM52.621 37.3789L53.1684 38.5263L54.4105 38.2421L53.8526 39.3895L54.8526 40.1789L53.6105 40.4526V41.7368L52.621 40.9368L51.621 41.7368L51.6315 40.4526L50.3894 40.1789L51.3894 39.3895L50.8315 38.2421L52.0736 38.5263L52.621 37.3789ZM47.5052 25.1684L48.0526 26.3158L49.2947 26.0316L48.7368 27.179L49.7368 27.9684L48.4947 28.2526V29.5263L47.5052 28.7263L46.5052 29.5263L46.5158 28.2526L45.2631 27.9684L46.2631 27.179L45.7052 26.0316L46.9473 26.3158L47.5052 25.1684ZM52.621 18.2L53.1684 19.3474L54.4105 19.0632L53.8526 20.2105L54.8526 21L53.6105 21.2842V22.5579L52.621 21.7579L51.621 22.5579L51.6315 21.2842L50.3894 21L51.3894 20.2105L50.8315 19.0632L52.0736 19.3474L52.621 18.2ZM57.0947 23.4316L57.6421 24.579L58.8842 24.2947L58.3263 25.4421L59.3263 26.2316L58.0842 26.5053V27.7895L57.0947 26.9895L56.0947 27.7895V26.5053L54.8526 26.2316L55.8526 25.4421L55.2947 24.2947L56.5368 24.579L57.0947 23.4316ZM53.8947 29.5263L54.3263 30.8632H55.7263L54.5894 31.6842L55.0315 33.021L53.8947 32.1895L52.7579 33.021L53.1894 31.6842L52.0631 30.8632H53.4631L53.8947 29.5263Z" fill="white"/>
<path d="M38.821 12V15.221L34.0737 17.8632H38.821V24.1053H32.6L38.821 27.5579V29.9684H36.0105L28.2737 25.6631V29.9684H22.421V24.8526L13.221 29.9684H11.8737V26.7474L16.6316 24.1053H11.8737V17.8632H18.0947L11.8737 14.4V12H14.6842L22.421 16.2947V12H28.2737V17.1158L37.4842 12H38.821Z" fill="white"/>
<path d="M27.0316 12H23.6631V19.2947H11.8737V22.6631H23.6631V29.9684H27.0316V22.6631H38.821V19.2947H27.0316V12Z" fill="#D80027"/>
<path d="M28.2737 24.1052L38.821 29.9684V28.3052L31.2632 24.1052H28.2737Z" fill="#0052B4"/>
<path d="M28.2737 24.1052L38.821 29.9684V28.3052L31.2632 24.1052H28.2737Z" fill="white"/>
<path d="M28.2737 24.1052L38.821 29.9684V28.3052L31.2631 24.1052H28.2737ZM19.4421 24.1052L11.8737 28.3052V29.9684L22.421 24.1052H19.4421Z" fill="#D80027"/>
<path d="M22.421 17.8632L11.8737 12V13.6526L19.4421 17.8632H22.421Z" fill="#0052B4"/>
<path d="M22.421 17.8632L11.8737 12V13.6526L19.4421 17.8632H22.421Z" fill="white"/>
<path d="M22.421 17.8632L11.8737 12V13.6526L19.4421 17.8632H22.421ZM31.2631 17.8632L38.821 13.6526V12L28.2737 17.8632H31.2631Z" fill="#D80027"/>
</g>
<defs>
<filter id="filter0_d_1217_6637" x="0" y="0" width="78" height="59.9999" filterUnits="userSpaceOnUse" color-interpolation-filters="sRGB">
<feFlood flood-opacity="0" result="BackgroundImageFix"/>
<feColorMatrix in="SourceAlpha" type="matrix" values="0 0 0 0 0 0 0 0 0 0 0 0 0 0 0 0 0 0 127 0" result="hardAlpha"/>
<feMorphology radius="4" operator="dilate" in="SourceAlpha" result="effect1_dropShadow_1217_6637"/>
<feOffset/>
<feGaussianBlur stdDeviation="4"/>
<feComposite in2="hardAlpha" operator="out"/>
<feColorMatrix type="matrix" values="0 0 0 0 0.333333 0 0 0 0 0.333333 0 0 0 0 0.333333 0 0 0 0.15 0"/>
<feBlend mode="normal" in2="BackgroundImageFix" result="effect1_dropShadow_1217_6637"/>
<feBlend mode="normal" in="SourceGraphic" in2="effect1_dropShadow_1217_6637" result="shape"/>
</filter>
<clipPath id="clip0_1217_6637">
<rect width="54" height="36" fill="white" transform="translate(12 12)"/>
</clipPath>
</defs>
</svg>
