<svg width="24" height="24" viewBox="0 0 24 24" fill="none" xmlns="http://www.w3.org/2000/svg">
<path d="M19.4912 3.00195V3.00167C19.4912 2.93604 19.5041 2.87104 19.5292 2.81039C19.5543 2.74974 19.5911 2.69464 19.6375 2.64823C19.6839 2.60183 19.739 2.56502 19.7997 2.53992C19.8603 2.51482 19.9253 2.50192 19.9909 2.50195L19.9915 2.50195C20.0571 2.50192 20.1221 2.51481 20.1828 2.53991C20.2434 2.56501 20.2985 2.60182 20.3449 2.64823C20.3913 2.69464 20.4282 2.74974 20.4533 2.81039C20.4783 2.87103 20.4912 2.93603 20.4912 3.00166V3.00195V19.002C20.4912 19.1346 20.4385 19.2617 20.3448 19.3555C20.251 19.4493 20.1238 19.502 19.9912 19.502C19.8586 19.502 19.7314 19.4493 19.6377 19.3555C19.5439 19.2617 19.4912 19.1346 19.4912 19.002V18.365V18.1881L19.3799 18.0505C18.5608 17.0381 17.5427 16.2044 16.3888 15.6008C15.2348 14.9973 13.9693 14.6367 12.6705 14.5413L12.3148 14.5152L12.1743 14.843L9.45059 21.1986L9.45033 21.1992C9.41194 21.2891 9.34799 21.3657 9.26642 21.4195C9.18484 21.4733 9.08924 21.502 8.99151 21.502H8.99121H4.99121H4.99086C4.90817 21.502 4.82677 21.4815 4.75395 21.4424C4.68113 21.4032 4.61918 21.3465 4.57366 21.2775C4.52814 21.2085 4.50048 21.1292 4.49316 21.0469C4.48583 20.9645 4.49908 20.8816 4.53171 20.8056L4.53184 20.8053L6.93457 15.1989L7.23327 14.502H6.475H5.99176C5.32879 14.5012 4.69319 14.2375 4.2244 13.7688C3.75568 13.3 3.492 12.6645 3.49121 12.0017V10.0022C3.492 9.33937 3.75568 8.70387 4.2244 8.23515C4.69309 7.76645 5.32853 7.50278 5.99135 7.50195C5.99149 7.50195 5.99162 7.50195 5.99176 7.50195L11.9912 7.50196L11.9931 7.50195C13.4108 7.49668 14.8096 7.17535 16.0875 6.56135C17.3654 5.94735 18.4903 5.05613 19.3804 3.95257L19.4912 3.81518V3.63867V3.00195ZM5.99088 13.502H5.99121H6.99121H7.49121V13.002V9.00195V8.50195H6.99121H5.99121H5.99087C5.59322 8.50222 5.21193 8.66031 4.93075 8.94149C4.64957 9.22267 4.49148 9.60396 4.49121 10.0016V10.002L4.49121 12.002L4.49121 12.0023C4.49148 12.3999 4.64956 12.7812 4.93075 13.0624C5.21193 13.3436 5.59322 13.5017 5.99088 13.502ZM8.33203 20.502H8.66175L8.79161 20.1989L10.9342 15.1989L11.2328 14.502H10.4746H8.65039H8.32068L8.19081 14.805L6.04823 19.805L5.74958 20.502H6.50781H8.33203ZM18.6733 15.9097L19.4912 16.5835V15.5238V6.47956V5.41977L18.6733 6.09367C16.7909 7.64456 14.4294 8.49554 11.9905 8.5019H8.99121H8.49121V9.0019V13.0019V13.5019H8.99121H11.9907C14.4296 13.5081 16.7909 14.3589 18.6733 15.9097Z" fill="#0061FF" stroke="#0061FF"/>
</svg>
