<svg width="24" height="24" viewBox="0 0 24 24" fill="none" xmlns="http://www.w3.org/2000/svg">
<path d="M12 22.5C6.21023 22.5 1.5 17.7898 1.5 12C1.5 6.21023 6.21023 1.5 12 1.5C17.7898 1.5 22.5 6.21023 22.5 12C22.5 17.7898 17.7898 22.5 12 22.5ZM12 3C7.0371 3 3 7.0371 3 12C3 16.9629 7.0371 21 12 21C16.9629 21 21 16.9629 21 12C21 7.0371 16.9629 3 12 3Z" fill="#0061FF" stroke="#0061FF" stroke-width="0.5"/>
<path d="M12 22.5C11.5855 22.5 11.25 22.1645 11.25 21.75V17.25H10.5V18C10.5 18.2886 10.3345 18.5508 10.0752 18.6761C9.81518 18.8006 9.5061 18.7654 9.28125 18.586L5.53125 15.586C5.35328 15.4431 5.25 15.2278 5.25 15C5.25 14.7722 5.35328 14.5569 5.53125 14.414L9.28125 11.414C9.50685 11.2339 9.81375 11.1995 10.0752 11.3239C10.3345 11.4492 10.5 11.7114 10.5 12V12.75H11.25V10.5C11.25 10.0855 11.5855 9.75 12 9.75H14.25C14.6448 9.75 14.9678 10.0547 14.9978 10.4414L16.7996 9L14.9978 7.55858C14.9678 7.94535 14.6448 8.25 14.25 8.25H12C11.5855 8.25 11.25 7.91453 11.25 7.5V2.25C11.25 1.83548 11.5855 1.5 12 1.5C12.4145 1.5 12.75 1.83548 12.75 2.25V6.75H13.5V6C13.5 5.7114 13.6655 5.4492 13.9248 5.32395C14.1841 5.1987 14.4931 5.23388 14.7188 5.41402L18.4688 8.41403C18.6467 8.5569 18.75 8.77222 18.75 9C18.75 9.22778 18.6467 9.4431 18.4688 9.58597L14.7188 12.586C14.4939 12.7669 14.1863 12.8013 13.9248 12.6761C13.6655 12.5508 13.5 12.2886 13.5 12V11.25H12.75V13.5C12.75 13.9145 12.4145 14.25 12 14.25H9.75C9.3552 14.25 9.03225 13.9453 9.00218 13.5586L7.20045 15L9.00218 16.4414C9.03225 16.0547 9.3552 15.75 9.75 15.75H12C12.4145 15.75 12.75 16.0855 12.75 16.5V21.75C12.75 22.1645 12.4145 22.5 12 22.5Z" fill="#0061FF" stroke="#0061FF" stroke-width="0.3"/>
</svg>
