<svg width="7" height="7" viewBox="0 0 7 7" fill="none" xmlns="http://www.w3.org/2000/svg">
<g clip-path="url(#clip0_170_16606)">
<path d="M2.9165 5.54208V4.08373H4.08318V5.54208C4.08318 5.7025 4.21443 5.83375 4.37485 5.83375H5.24986C5.41028 5.83375 5.54153 5.7025 5.54153 5.54208V3.50039H6.03737C6.17154 3.50039 6.23571 3.33413 6.13363 3.24663L3.69526 1.05035C3.58442 0.951184 3.41526 0.951184 3.30442 1.05035L0.866054 3.24663C0.766886 3.33413 0.828137 3.50039 0.962305 3.50039H1.45815V5.54208C1.45815 5.7025 1.5894 5.83375 1.74982 5.83375H2.62483C2.78525 5.83375 2.9165 5.7025 2.9165 5.54208Z" fill="#02957D"/>
</g>
<defs>
<clipPath id="clip0_170_16606">
<rect width="6.62607" height="6.62607" fill="white" transform="scale(1.05645)"/>
</clipPath>
</defs>
</svg>
