<svg width="7" height="7" viewBox="0 0 7 7" fill="none" xmlns="http://www.w3.org/2000/svg">
<g clip-path="url(#clip0_170_16619)">
<path fill-rule="evenodd" clip-rule="evenodd" d="M1.74945 5.83297H5.24949C5.40991 5.83297 5.54116 5.96423 5.54116 6.12465C5.54116 6.28506 5.40991 6.41632 5.24949 6.41632H1.74945C1.58903 6.41632 1.45777 6.28506 1.45777 6.12465C1.45777 5.96423 1.58903 5.83297 1.74945 5.83297ZM3.49947 2.04126C3.17863 2.04126 2.91613 2.30376 2.91613 2.6246C2.91613 2.94544 3.17863 3.20794 3.49947 3.20794C3.65418 3.20794 3.80256 3.14648 3.91195 3.03708C4.02135 2.92768 4.08281 2.77931 4.08281 2.6246C4.08281 2.46989 4.02135 2.32151 3.91195 2.21211C3.80256 2.10272 3.65418 2.04126 3.49947 2.04126ZM3.49947 0.582903C4.45323 0.582903 5.54116 1.30041 5.54116 2.66835C5.54116 3.53753 4.9199 4.45337 3.67739 5.40714C3.57239 5.4888 3.42655 5.4888 3.32155 5.40714C2.07903 4.45046 1.45777 3.53753 1.45777 2.66835C1.45777 1.30041 2.54571 0.582903 3.49947 0.582903Z" fill="#02957D"/>
</g>
<defs>
<clipPath id="clip0_170_16619">
<rect width="6.62607" height="6.62607" fill="white" transform="scale(1.05645)"/>
</clipPath>
</defs>
</svg>
