<svg width="7" height="7" viewBox="0 0 7 7" fill="none" xmlns="http://www.w3.org/2000/svg">
<g clip-path="url(#clip0_170_17064)">
<path d="M5.99338 2.18696C5.74183 0.819812 4.40749 -0.0879739 3.02941 0.163581C1.83726 0.382325 0.962281 1.43229 0.962281 2.75569C0.962281 3.18224 1.1154 3.67441 1.43258 4.1119C2.056 4.99781 2.67942 5.88372 3.31377 6.7587C3.42315 6.91182 3.5872 6.91182 3.69658 6.7587C4.31999 5.87279 4.95435 4.99781 5.57777 4.1119C5.97151 3.53223 6.11369 2.88694 5.99338 2.18696ZM3.49971 4.46189C2.49349 4.46189 1.6732 3.6416 1.6732 2.63538C1.6732 1.62916 2.49349 0.808875 3.49971 0.808875C4.50593 0.808875 5.32621 1.62916 5.32621 2.63538C5.32621 3.6416 4.50593 4.46189 3.49971 4.46189Z" fill="#02957D"/>
<path d="M2.37242 1.57394H2.78803V1.78174C2.82084 1.75987 2.84272 1.74893 2.85366 1.73799C3.02865 1.60675 3.20364 1.46456 3.37864 1.33332C3.4552 1.2677 3.55363 1.27863 3.64113 1.34426C3.89269 1.54112 4.14424 1.73799 4.40673 1.92393C4.61454 2.07705 4.82235 2.2411 5.01922 2.39422C5.0739 2.43797 5.10671 2.48172 5.09578 2.54734C5.0739 2.67859 4.90984 2.72234 4.78954 2.63484C4.61454 2.5036 4.43955 2.36141 4.26455 2.23017C4.03487 2.05517 3.80519 1.88018 3.57551 1.69425C3.52082 1.6505 3.49895 1.6505 3.44426 1.69425C3.03959 2.00049 2.63491 2.31766 2.23024 2.62391C2.19742 2.64578 2.16461 2.66765 2.1318 2.67859C2.05524 2.70047 1.96774 2.66765 1.92399 2.61297C1.88025 2.54734 1.89118 2.47078 1.95681 2.4161C2.07712 2.3286 2.19742 2.23017 2.31773 2.14267C2.33961 2.1208 2.36148 2.08798 2.36148 2.05517C2.37242 1.89111 2.37242 1.73799 2.37242 1.57394Z" fill="#000C0A"/>
<path d="M3.06222 2.52586H3.35753V2.9196H2.96379V2.62429C2.96379 2.56961 3.00754 2.52586 3.06222 2.52586ZM2.96379 3.16021H3.35753V3.55395H3.06222C3.00754 3.55395 2.95285 3.5102 2.95285 3.44458V3.16021H2.96379ZM4.03563 2.62429V2.9196H3.64189V2.52586H3.9372C3.99188 2.52586 4.03563 2.56961 4.03563 2.62429ZM3.64189 3.16021H4.03563V3.45552C4.03563 3.5102 3.99188 3.56489 3.92626 3.56489H3.63096V3.16021H3.64189Z" fill="#000C0A"/>
</g>
<defs>
<clipPath id="clip0_170_17064">
<rect width="6.62773" height="6.62773" fill="white" transform="scale(1.05614)"/>
</clipPath>
</defs>
</svg>
