<svg width="7" height="7" viewBox="0 0 7 7" fill="none" xmlns="http://www.w3.org/2000/svg">
<g clip-path="url(#clip0_170_16615)">
<path d="M3.49669 0.582903C1.88667 0.582903 0.582903 1.88959 0.582903 3.49961C0.582903 5.10963 1.88667 6.41632 3.49669 6.41632C5.10963 6.41632 6.41632 5.10963 6.41632 3.49961C6.41632 1.88959 5.10963 0.582903 3.49669 0.582903ZM4.43879 5.07171L3.49961 4.50587L2.56043 5.07171C2.4496 5.1388 2.31251 5.03963 2.34168 4.91421L2.5896 3.8467L1.76417 3.1321C1.66792 3.04752 1.72042 2.8871 1.84875 2.87543L2.9396 2.7821L3.36544 1.77584C3.41503 1.65625 3.58419 1.65625 3.63378 1.77584L4.05962 2.77918L5.15047 2.87252C5.2788 2.88418 5.3313 3.0446 5.23213 3.12919L4.4067 3.84378L4.65463 4.91421C4.68379 5.03963 4.54962 5.1388 4.43879 5.07171Z" fill="#02957D"/>
</g>
<defs>
<clipPath id="clip0_170_16615">
<rect width="6.62607" height="6.62607" fill="white" transform="scale(1.05645)"/>
</clipPath>
</defs>
</svg>
