<svg width="7" height="7" viewBox="0 0 7 7" fill="none" xmlns="http://www.w3.org/2000/svg">
<g clip-path="url(#clip0_170_16611)">
<path d="M5.54152 0H1.45873C1.29834 0 1.1671 0.131232 1.1671 0.291628C1.1671 0.452023 1.29834 0.583255 1.45873 0.583255H5.54152C5.70191 0.583255 5.83315 0.452023 5.83315 0.291628C5.83315 0.131232 5.70191 0 5.54152 0ZM1.45873 6.99906H5.54152C5.70191 6.99906 5.83315 6.86783 5.83315 6.70744C5.83315 6.54704 5.70191 6.41581 5.54152 6.41581H1.45873C1.29834 6.41581 1.1671 6.54704 1.1671 6.70744C1.1671 6.86783 1.29834 6.99906 1.45873 6.99906ZM5.83315 1.16651H1.1671C0.846314 1.16651 0.583849 1.42898 0.583849 1.74977V5.2493C0.583849 5.57009 0.846314 5.83255 1.1671 5.83255H5.83315C6.15394 5.83255 6.4164 5.57009 6.4164 5.2493V1.74977C6.4164 1.42898 6.15394 1.16651 5.83315 1.16651ZM3.50013 1.96849C3.86174 1.96849 4.15629 2.26303 4.15629 2.62465C4.15629 2.98627 3.86174 3.28081 3.50013 3.28081C3.13851 3.28081 2.84396 2.98627 2.84396 2.62465C2.84396 2.26303 3.13851 1.96849 3.50013 1.96849ZM4.95826 4.95767H2.04199V4.52023C2.04199 4.03321 3.01311 3.79116 3.50013 3.79116C3.98714 3.79116 4.95826 4.03321 4.95826 4.52023V4.95767Z" fill="#02957D"/>
</g>
<defs>
<clipPath id="clip0_170_16611">
<rect width="6.62607" height="6.62607" fill="white" transform="scale(1.05629)"/>
</clipPath>
</defs>
</svg>
