<svg width="45" height="15" viewBox="0 0 45 15" fill="none" xmlns="http://www.w3.org/2000/svg">
<g clip-path="url(#clip0_614_8722)">
<path d="M44.8372 4.43054C44.4289 3.19098 43.3164 2.30086 42.0097 2.30086H41.9823C41.1329 2.30086 40.3673 2.67633 39.8224 3.27909C39.2765 2.67633 38.5109 2.30086 37.6624 2.30086H37.6351C36.8883 2.30086 36.2058 2.59123 35.6816 3.07183V2.82753C35.6636 2.58422 35.4751 2.39298 35.2422 2.39298H33.2378C32.9927 2.39298 32.7947 2.60324 32.7947 2.86457V14.4241C32.7947 14.6855 32.9927 14.8957 33.2378 14.8957H35.2422C35.4657 14.8957 35.6495 14.7185 35.6787 14.4892L35.6778 6.19076C35.6778 6.16173 35.6787 6.13469 35.6816 6.10766C35.7136 5.73719 35.9691 5.43281 36.3726 5.39476H36.4471H36.6574H36.7422C36.911 5.41078 37.0533 5.47386 37.1655 5.56898C37.34 5.71616 37.4371 5.94245 37.4371 6.19076L37.4446 14.4482C37.4446 14.7095 37.6435 14.9208 37.8877 14.9208H39.8921C40.1288 14.9208 40.3211 14.7205 40.3324 14.4712L40.3315 6.17975C40.3305 5.9074 40.4493 5.66109 40.6577 5.51491C40.7605 5.44482 40.884 5.39776 41.0263 5.38375H41.1008H41.3111H41.3959C41.8296 5.4238 42.0917 5.77324 42.0908 6.17975L42.0983 14.4261C42.0983 14.6875 42.2972 14.8977 42.5414 14.8977H44.5458C44.79 14.8977 44.989 14.6875 44.989 14.4261V5.55696C44.989 4.9522 44.9248 4.69488 44.8372 4.43054Z" fill="#54C1F0"/>
<path d="M31.2676 2.42313H30.1211V0.450644C30.1211 0.448641 30.1211 0.446639 30.1211 0.444636C30.1211 0.207337 29.9401 0.0150957 29.7166 0.0150957C29.6902 0.0150957 29.6648 0.0191002 29.6403 0.024106C28.3694 0.394573 28.6239 2.26393 26.3037 2.42313H26.2518H26.0783C26.0444 2.42313 26.0123 2.42813 25.9812 2.43514H25.9793L25.9812 2.43614C25.7832 2.4832 25.6343 2.66944 25.6343 2.89372V5.0224C25.6343 5.28173 25.8332 5.493 26.0783 5.493H27.288L27.2861 14.5194C27.2861 14.7767 27.4822 14.985 27.7245 14.985H29.7063C29.9476 14.985 30.1437 14.7767 30.1437 14.5194L30.1447 5.493H31.2676C31.5117 5.493 31.7107 5.28173 31.7107 5.0224V2.89372C31.7107 2.6344 31.5117 2.42313 31.2676 2.42313Z" fill="#54C1F0"/>
<path d="M24.056 2.42312H22.0516C21.8074 2.42312 21.6094 2.63439 21.6094 2.89371V7.29526C21.6047 7.5676 21.3973 7.78587 21.1399 7.78587H20.3008C20.0406 7.78587 19.8303 7.56359 19.8303 7.28725L19.8228 2.89371C19.8228 2.63439 19.6238 2.42312 19.3797 2.42312H17.3752C17.1301 2.42312 16.9321 2.63439 16.9321 2.89371V7.71779C16.9321 9.5501 18.1625 10.8567 19.8888 10.8567C19.8888 10.8567 21.1842 10.8567 21.2238 10.8648C21.4576 10.8928 21.6396 11.1011 21.6396 11.3574C21.6396 11.6107 21.4614 11.818 21.2304 11.849C21.2191 11.851 21.2087 11.854 21.1964 11.856L18.2653 11.867C18.0201 11.867 17.8221 12.0783 17.8221 12.3376V14.4653C17.8221 14.7256 18.0201 14.9359 18.2653 14.9359H21.5425C23.2697 14.9359 24.4991 13.6302 24.4991 11.7969V2.89371C24.4991 2.63439 24.3011 2.42312 24.056 2.42312Z" fill="#233266"/>
<path d="M4.65469 6.32351V7.31677V7.63717C4.65469 7.91252 4.44445 8.1368 4.18518 8.1368L2.91333 8.1378V5.50548H4.18518C4.44445 5.50548 4.65469 5.72776 4.65469 6.00411V6.32351ZM4.831 2.4226H0.449771C0.209355 2.4226 0.0151367 2.62986 0.0151367 2.88418V4.96981C0.0151367 4.97381 0.0160795 4.97782 0.0160795 4.98182C0.0160795 4.99184 0.0151367 5.00185 0.0151367 5.01086V11.7003V14.4508C0.0151367 14.7071 0.196156 14.9163 0.420544 14.9223H0.458256H2.46267C2.70685 14.9223 2.90579 14.7121 2.90579 14.4518L2.91333 11.2167H4.831C6.43566 11.2167 7.55383 10.0342 7.55383 8.32303V5.32025C7.55383 3.6091 6.43566 2.4226 4.831 2.4226Z" fill="#233266"/>
<path d="M12.9712 11.321V11.6534C12.9712 11.6805 12.9674 11.7065 12.9636 11.7315C12.9589 11.7556 12.9523 11.7786 12.9448 11.8006C12.8826 11.9868 12.7072 12.122 12.4988 12.122H11.6645C11.4042 12.122 11.1921 11.9118 11.1921 11.6534V11.2519C11.1921 11.2469 11.1912 11.2419 11.1912 11.2369L11.1921 10.1686V10.1666V10.0484V9.83413L11.1931 9.83113C11.194 9.57381 11.4042 9.36554 11.6645 9.36554H12.4988C12.76 9.36554 12.9712 9.57481 12.9712 9.83413V11.321ZM12.6525 2.43481H9.87123C9.62516 2.43481 9.42623 2.63306 9.42623 2.87637V3.70441C9.42623 3.70942 9.42717 3.71543 9.42717 3.72043C9.42717 3.72644 9.42623 3.73245 9.42623 3.73845V4.87288C9.42623 5.13021 9.63742 5.34047 9.89763 5.34047H12.546C12.7553 5.37552 12.9212 5.53772 12.9448 5.79104V6.06539C12.9212 6.30669 12.7572 6.48291 12.5573 6.50294H11.2458C9.50165 6.50294 8.25903 7.73349 8.25903 9.46166V11.8737V11.9368C8.25903 13.6549 9.32723 14.8775 11.0592 14.8775H14.6937C15.3461 14.8775 15.875 14.3528 15.875 13.707V5.62984C15.875 3.67137 14.9247 2.43481 12.6525 2.43481Z" fill="#233266"/>
</g>
<defs>
<clipPath id="clip0_614_8722">
<rect width="45" height="15" fill="white"/>
</clipPath>
</defs>
</svg>
