<svg width="54" height="36" viewBox="0 0 54 36" fill="none" xmlns="http://www.w3.org/2000/svg">
<g clip-path="url(#clip0_1217_6631)">
<path d="M1.82153 0H52.1794V36H1.82153V0Z" fill="#181A93"/>
<path d="M0 0H54V12H0V0Z" fill="#FFA44A"/>
<path d="M0 24H54V36H0V24Z" fill="#1A9F0B"/>
<path d="M0 12H54V24H0V12Z" fill="white"/>
<path d="M26.9998 21.6C28.988 21.6 30.5998 19.9882 30.5998 18C30.5998 16.0118 28.988 14.4 26.9998 14.4C25.0116 14.4 23.3998 16.0118 23.3998 18C23.3998 19.9882 25.0116 21.6 26.9998 21.6Z" fill="white"/>
<path d="M27.0001 22.8C24.358 22.8 22.2001 20.6421 22.2001 18C22.2001 15.3579 24.358 13.2 27.0001 13.2C29.6422 13.2 31.8001 15.3579 31.8001 18C31.8001 20.6421 29.6422 22.8 27.0001 22.8ZM27.0001 21.6C28.9159 21.6 30.6001 19.9158 30.6001 18C30.6001 16.0842 28.9264 14.4 27.0001 14.4C25.0738 14.4 23.4001 16.0842 23.4001 18C23.4001 19.9158 25.0843 21.6 27.0001 21.6Z" fill="#181A93"/>
<path d="M26.9995 20.4C28.325 20.4 29.3995 19.3255 29.3995 18C29.3995 16.6745 28.325 15.6 26.9995 15.6C25.674 15.6 24.5995 16.6745 24.5995 18C24.5995 19.3255 25.674 20.4 26.9995 20.4Z" fill="#181A93"/>
</g>
<defs>
<clipPath id="clip0_1217_6631">
<rect width="54" height="36" fill="white"/>
</clipPath>
</defs>
</svg>
