<svg width="3" height="3" viewBox="0 0 3 3" fill="none" xmlns="http://www.w3.org/2000/svg">
<g clip-path="url(#clip0_170_16534)">
<path d="M2.18673 1.37431C1.73877 1.37431 1.37431 1.73877 1.37431 2.18673C1.37431 2.63468 1.73877 2.99915 2.18673 2.99915C2.63468 2.99915 2.99915 2.63468 2.99915 2.18673C2.99915 1.73877 2.63468 1.37431 2.18673 1.37431ZM2.1711 2.09299H2.20235C2.33159 2.09299 2.4367 2.1981 2.4367 2.32734C2.4367 2.42895 2.37121 2.51494 2.28047 2.54732V2.59294C2.28047 2.64468 2.23847 2.68668 2.18673 2.68668C2.13498 2.68668 2.09299 2.64468 2.09299 2.59294V2.56169H2.03049C1.97875 2.56169 1.93675 2.51969 1.93675 2.46795C1.93675 2.4162 1.97875 2.37421 2.03049 2.37421H2.20235C2.22822 2.37421 2.24922 2.35321 2.24922 2.32734C2.24922 2.30147 2.22822 2.28047 2.20235 2.28047H2.1711C2.04187 2.28047 1.93675 2.17535 1.93675 2.04612C1.93675 1.9445 2.00225 1.85851 2.09299 1.82614V1.78052C2.09299 1.72877 2.13498 1.68678 2.18673 1.68678C2.23847 1.68678 2.28047 1.72877 2.28047 1.78052V1.81177H2.34296C2.39471 1.81177 2.4367 1.85376 2.4367 1.90551C2.4367 1.95725 2.39471 1.99925 2.34296 1.99925H2.1711C2.14523 1.99925 2.12423 2.02024 2.12423 2.04612C2.12423 2.07199 2.14523 2.09299 2.1711 2.09299Z" fill="#02957D"/>
<path d="M2.12478 0.744766V0.250068C2.12478 0.18095 2.06879 0.125081 1.99979 0.125081C1.9308 0.125081 1.87481 0.18095 1.87481 0.250068V0.500292L1.39973 0.035715C1.35111 -0.011905 1.27349 -0.011905 1.225 0.035715L0.0548693 1.1796C0.0199979 1.21484 0 1.26321 0 1.31246C0 1.41582 0.0841163 1.49994 0.187481 1.49994H0.374961V2.18737C0.374961 2.35972 0.515197 2.49983 0.687429 2.49983H0.999897C1.06889 2.49983 1.12488 2.44396 1.12488 2.37485C1.12488 2.30573 1.06889 2.24986 0.999897 2.24986H0.687429C0.652933 2.24986 0.624935 2.22174 0.624935 2.18737V1.37495C0.624935 1.30583 0.568941 1.24996 0.499948 1.24996H0.34034L1.31236 0.299813L2.13115 1.10048C2.18065 1.14885 2.25964 1.14797 2.30789 1.09848C2.35613 1.04911 2.35526 0.969993 2.30589 0.921748L2.12478 0.744766Z" fill="#02957D"/>
</g>
<defs>
<clipPath id="clip0_170_16534">
<rect width="2.12087" height="2.12087" fill="white" transform="scale(1.41436)"/>
</clipPath>
</defs>
</svg>
