<svg width="28" height="28" viewBox="0 0 28 28" fill="none" xmlns="http://www.w3.org/2000/svg">
<path d="M13.9967 0L14.4488 1.3906H15.9183L14.7348 2.25055L15.1803 3.64263L13.9967 2.78268L12.8131 3.64263L13.2652 2.25129L12.0817 1.39134H13.5447L13.9967 0ZM7.95586 1.61089L8.40792 3.0015H9.87745L8.69392 3.86144L9.13946 5.25352L7.95586 4.39357L6.77226 5.25352L7.22438 3.86218L6.04085 3.00223H7.50381L7.95586 1.61089ZM3.52591 6.04085L3.97796 7.43145H5.4475L4.26396 8.2914L4.70951 9.68348L3.52591 8.82353L2.3423 9.68348L2.79443 8.29213L1.61089 7.43219H3.07385L3.52591 6.04085ZM1.91502 12.0816L2.36707 13.4723H3.83661L2.65307 14.3323L3.09862 15.7244L1.91502 14.8644L0.731412 15.7244L1.18354 14.3329L0 13.473H1.46296L1.91502 12.0816ZM3.52591 18.1225L3.97796 19.5132H5.4475L4.26396 20.3731L4.70951 21.7652L3.52591 20.9053L2.3423 21.7652L2.79443 20.3738L1.61089 19.5139H3.07385L3.52591 18.1225ZM7.95586 22.5525L8.40792 23.9432H9.87745L8.69392 24.803L9.13946 26.1951L7.95586 25.3352L6.77226 26.1951L7.22438 24.8038L6.04085 23.9438H7.50381L7.95586 22.5525ZM20.0376 1.61089L20.4896 3.0015H21.9591L20.7756 3.86144L21.2211 5.25352L20.0376 4.39357L18.8539 5.25352L19.3061 3.86218L18.1225 3.00223H19.5854L20.0376 1.61089ZM24.4675 6.04085L24.9196 7.43145H26.3891L25.2056 8.2914L25.651 9.68348L24.4675 8.82353L23.2838 9.68348L23.736 8.29213L22.5525 7.43219H24.0154L24.4675 6.04085ZM26.0784 12.0817L26.5305 13.4723H28L26.8165 14.3323L27.262 15.7244L26.0784 14.8644L24.8948 15.7244L25.3469 14.3329L24.1634 13.473H25.6263L26.0784 12.0817ZM24.4675 18.1225L24.9196 19.5132H26.3891L25.2056 20.3731L25.6511 21.7652L24.4675 20.9053L23.2839 21.7652L23.736 20.3738L22.5525 19.5139H24.0155L24.4675 18.1225ZM13.9967 24.1634L14.4488 25.5541H15.9183L14.7348 26.4139L15.1803 27.806L13.9967 26.9461L12.8131 27.806L13.2652 26.4147L12.0817 25.5547H13.5447L13.9967 24.1634ZM20.0376 22.5524L20.4896 23.9431H21.9591L20.7756 24.803L21.2212 26.1951L20.0376 25.3352L18.854 26.1951L19.3061 24.8037L18.1225 23.9438H19.5856L20.0376 22.5524Z" fill="#FFCC00"/>
</svg>
