<svg width="4" height="4" viewBox="0 0 4 4" fill="none" xmlns="http://www.w3.org/2000/svg">
<g clip-path="url(#clip0_170_17071)">
<path d="M3.21361 2.88093L2.99866 2.66598V1.83284C2.99866 1.32129 2.72539 0.893059 2.24884 0.779752V0.666445C2.24884 0.528144 2.13719 0.416503 1.99889 0.416503C1.86059 0.416503 1.74895 0.528144 1.74895 0.666445V0.779752C1.27073 0.893059 0.999126 1.31963 0.999126 1.83284V2.66598L0.784175 2.88093C0.6792 2.98591 0.752516 3.16587 0.900815 3.16587H3.09531C3.24527 3.16587 3.31859 2.98591 3.21361 2.88093ZM2.66541 2.83261H1.33238V1.83284C1.33238 1.4196 1.58399 1.08301 1.99889 1.08301C2.4138 1.08301 2.66541 1.4196 2.66541 1.83284V2.83261ZM1.99889 3.66575C2.18218 3.66575 2.33215 3.51578 2.33215 3.33249H1.66564C1.66564 3.51578 1.81394 3.66575 1.99889 3.66575Z" fill="#000C0A"/>
</g>
<defs>
<clipPath id="clip0_170_17071">
<rect width="3.97564" height="3.97564" fill="white" transform="scale(1.00589)"/>
</clipPath>
</defs>
</svg>
