<svg width="2" height="2" viewBox="0 0 2 2" fill="none" xmlns="http://www.w3.org/2000/svg">
<g clip-path="url(#clip0_170_15809)">
<path d="M0.999531 0.166667C0.677018 0.166667 0.416174 0.427511 0.416174 0.750024C0.416174 1.18754 0.999531 1.8334 0.999531 1.8334C0.999531 1.8334 1.58289 1.18754 1.58289 0.750024C1.58289 0.427511 1.32204 0.166667 0.999531 0.166667ZM0.582847 0.750024C0.582847 0.520015 0.769521 0.33334 0.999531 0.33334C1.22954 0.33334 1.41621 0.520015 1.41621 0.750024C1.41621 0.990034 1.1762 1.34922 0.999531 1.57339C0.826191 1.35088 0.582847 0.987534 0.582847 0.750024Z" fill="#6A7270"/>
<path d="M1.00026 0.958104C1.11532 0.958104 1.2086 0.864826 1.2086 0.749762C1.2086 0.634698 1.11532 0.54142 1.00026 0.54142C0.885191 0.54142 0.791913 0.634698 0.791913 0.749762C0.791913 0.864826 0.885191 0.958104 1.00026 0.958104Z" fill="#6A7270"/>
</g>
<defs>
<clipPath id="clip0_170_15809">
<rect width="1.98055" height="1.98055" fill="white" transform="scale(1.00986)"/>
</clipPath>
</defs>
</svg>
