<svg width="81" height="63" viewBox="0 0 81 63" fill="none" xmlns="http://www.w3.org/2000/svg">
<g clip-path="url(#clip0_1217_6606)" filter="url(#filter0_d_1217_6606)">
<path d="M13.5 13.5H67.5V49.5H13.5V13.5Z" fill="white"/>
<path d="M13.5 13.5H67.5V16.2684H13.5V13.5ZM13.5 19.0368H67.5V21.8053H13.5V19.0368ZM13.5 24.5737H67.5V27.3421H13.5V24.5737ZM13.5 30.1105H67.5V32.8789H13.5V30.1105ZM13.5 35.6579H67.5V38.4263H13.5V35.6579ZM13.5 41.1947H67.5V43.9632H13.5V41.1947ZM13.5 46.7316H67.5V49.5H13.5V46.7316Z" fill="#D80027"/>
<path d="M13.5 13.5H40.5V32.8789H13.5V13.5Z" fill="#2E52B2"/>
<path d="M18.5316 28.121L18.1105 26.7737L17.6474 28.121H16.2579L17.3842 28.9316L16.9632 30.2789L18.1105 29.4473L19.2263 30.2789L18.7947 28.9316L19.9421 28.121H18.5316ZM24.4579 28.121L24.0263 26.7737L23.5842 28.121H22.1947L23.321 28.9316L22.9 30.2789L24.0263 29.4473L25.1632 30.2789L24.7421 28.9316L25.8684 28.121H24.4579ZM30.4053 28.121L29.9526 26.7737L29.5316 28.121H28.1105L29.2684 28.9316L28.8263 30.2789L29.9526 29.4473L31.1105 30.2789L30.6684 28.9316L31.7947 28.121H30.4053ZM36.321 28.121L35.9 26.7737L35.4579 28.121H34.0579L35.1947 28.9316L34.7737 30.2789L35.9 29.4473L37.0368 30.2789L36.5842 28.9316L37.7421 28.121H36.321ZM24.0263 21.4263L23.5842 22.7737H22.1947L23.321 23.6052L22.9 24.9316L24.0263 24.1105L25.1632 24.9316L24.7421 23.6052L25.8684 22.7737H24.4579L24.0263 21.4263ZM18.1105 21.4263L17.6474 22.7737H16.2579L17.3842 23.6052L16.9632 24.9316L18.1105 24.1105L19.2263 24.9316L18.7947 23.6052L19.9421 22.7737H18.5316L18.1105 21.4263ZM29.9526 21.4263L29.5316 22.7737H28.1105L29.2684 23.6052L28.8263 24.9316L29.9526 24.1105L31.1105 24.9316L30.6684 23.6052L31.7947 22.7737H30.4053L29.9526 21.4263ZM35.9 21.4263L35.4579 22.7737H34.0579L35.1947 23.6052L34.7737 24.9316L35.9 24.1105L37.0368 24.9316L36.5842 23.6052L37.7421 22.7737H36.321L35.9 21.4263ZM18.1105 16.1L17.6474 17.4263H16.2579L17.3842 18.2579L16.9632 19.5947L18.1105 18.7631L19.2263 19.5947L18.7947 18.2579L19.9421 17.4263H18.5316L18.1105 16.1ZM24.0263 16.1L23.5842 17.4263H22.1947L23.321 18.2579L22.9 19.5947L24.0263 18.7631L25.1632 19.5947L24.7421 18.2579L25.8684 17.4263H24.4579L24.0263 16.1ZM29.9526 16.1L29.5316 17.4263H28.1105L29.2684 18.2579L28.8263 19.5947L29.9526 18.7631L31.1105 19.5947L30.6684 18.2579L31.7947 17.4263H30.4053L29.9526 16.1ZM35.9 16.1L35.4579 17.4263H34.0579L35.1947 18.2579L34.7737 19.5947L35.9 18.7631L37.0368 19.5947L36.5842 18.2579L37.7421 17.4263H36.321L35.9 16.1Z" fill="white"/>
</g>
<defs>
<filter id="filter0_d_1217_6606" x="0" y="0" width="81" height="63" filterUnits="userSpaceOnUse" color-interpolation-filters="sRGB">
<feFlood flood-opacity="0" result="BackgroundImageFix"/>
<feColorMatrix in="SourceAlpha" type="matrix" values="0 0 0 0 0 0 0 0 0 0 0 0 0 0 0 0 0 0 127 0" result="hardAlpha"/>
<feMorphology radius="4.5" operator="dilate" in="SourceAlpha" result="effect1_dropShadow_1217_6606"/>
<feOffset/>
<feGaussianBlur stdDeviation="4.5"/>
<feComposite in2="hardAlpha" operator="out"/>
<feColorMatrix type="matrix" values="0 0 0 0 0.333333 0 0 0 0 0.333333 0 0 0 0 0.333333 0 0 0 0.15 0"/>
<feBlend mode="normal" in2="BackgroundImageFix" result="effect1_dropShadow_1217_6606"/>
<feBlend mode="normal" in="SourceGraphic" in2="effect1_dropShadow_1217_6606" result="shape"/>
</filter>
<clipPath id="clip0_1217_6606">
<rect width="54" height="36" fill="white" transform="translate(13.5 13.5)"/>
</clipPath>
</defs>
</svg>
