<svg width="3" height="3" viewBox="0 0 3 3" fill="none" xmlns="http://www.w3.org/2000/svg">
<g clip-path="url(#clip0_170_16585)">
<path d="M2.49971 2.37469H2.37469V0.624508C2.37469 0.555751 2.31844 0.499495 2.24968 0.499495H1.74963C1.74963 0.430738 1.69337 0.374482 1.62461 0.374482H0.749521C0.680764 0.374482 0.624508 0.430738 0.624508 0.499495V2.37469H0.499495C0.430738 2.37469 0.374482 2.43095 0.374482 2.49971C0.374482 2.56846 0.430738 2.62472 0.499495 2.62472H1.62461C1.69337 2.62472 1.74963 2.56846 1.74963 2.49971V0.749521H2.12467V2.49971C2.12467 2.56846 2.18092 2.62472 2.24968 2.62472H2.49971C2.56846 2.62472 2.62472 2.56846 2.62472 2.49971C2.62472 2.43095 2.56846 2.37469 2.49971 2.37469ZM1.4996 1.62461H1.24957V1.37459H1.4996V1.62461Z" fill="#02957D"/>
</g>
<defs>
<clipPath id="clip0_170_16585">
<rect width="2.12034" height="2.12034" fill="white" transform="scale(1.41502)"/>
</clipPath>
</defs>
</svg>
