<svg width="2" height="2" viewBox="0 0 2 2" fill="none" xmlns="http://www.w3.org/2000/svg">
<g clip-path="url(#clip0_170_15819)">
<path d="M0.645397 0.77034C0.714401 0.77034 0.77034 0.714401 0.77034 0.645397C0.77034 0.576393 0.714401 0.520453 0.645397 0.520453C0.576393 0.520453 0.520453 0.576393 0.520453 0.645397C0.520453 0.714401 0.576393 0.77034 0.645397 0.77034Z" fill="#6A7270"/>
<path d="M1.45794 1.02053V0.510009C1.45794 0.412528 1.37858 0.333169 1.2811 0.333169C1.23424 0.333169 1.18925 0.351915 1.15613 0.385034L1.07802 0.463143C1.06802 0.460019 1.0574 0.458144 1.04615 0.458144C1.02116 0.458144 0.998036 0.465643 0.978665 0.47814L1.15113 0.650605C1.16363 0.631234 1.17113 0.608114 1.17113 0.583119C1.17113 0.571871 1.16925 0.561873 1.16675 0.55125L1.24486 0.473141C1.25423 0.463768 1.26736 0.458144 1.2811 0.458144C1.30985 0.458144 1.33297 0.481264 1.33297 0.510009V1.02053H0.904929C0.886183 1.00741 0.869312 0.992412 0.85369 0.97554L0.766207 0.878685C0.754335 0.865562 0.739338 0.854939 0.723091 0.847441C0.70372 0.838068 0.682474 0.833069 0.660603 0.833069C0.583119 0.833694 0.520631 0.896181 0.520631 0.973666V1.02053H0.333169V1.39546C0.333169 1.46419 0.389408 1.52043 0.458144 1.52043C0.458144 1.5548 0.486263 1.58292 0.520631 1.58292H1.39546C1.42982 1.58292 1.45794 1.5548 1.45794 1.52043C1.52668 1.52043 1.58292 1.46419 1.58292 1.39546V1.02053H1.45794ZM1.45794 1.39546H0.458144V1.14551H1.45794V1.39546Z" fill="#6A7270"/>
</g>
<defs>
<clipPath id="clip0_170_15819">
<rect width="1.98105" height="1.98105" fill="white" transform="scale(1.00936)"/>
</clipPath>
</defs>
</svg>
