<svg width="45" height="30" viewBox="0 0 45 30" fill="none" xmlns="http://www.w3.org/2000/svg">
<path fill-rule="evenodd" clip-rule="evenodd" d="M20.7683 21.1086V15.8651H23.5519C24.6925 15.8651 25.6553 15.4936 26.4401 14.7607L26.6285 14.5749C28.0621 13.0576 27.968 10.6939 26.4401 9.29014C25.6762 8.54697 24.6297 8.14442 23.5519 8.16506H19.0835V21.1086H20.7683ZM20.769 14.2756V9.75463H23.5949C24.202 9.75463 24.7776 9.98171 25.2067 10.3946C26.1173 11.2616 26.1382 12.7067 25.2591 13.6047C24.8299 14.0485 24.2229 14.2962 23.5949 14.2756H20.769ZM34.488 12.9441C33.7659 12.2938 32.7823 11.9635 31.537 11.9635C29.9359 11.9635 28.7324 12.5415 27.9371 13.6873L29.4231 14.6059C29.9673 13.8214 30.7103 13.4292 31.6521 13.4292C32.2486 13.4292 32.8241 13.646 33.2741 14.0382C33.7136 14.4098 33.9648 14.9465 33.9648 15.5142V15.8961C33.316 15.5452 32.4997 15.3594 31.4951 15.3594C30.3231 15.3594 29.3813 15.6278 28.6801 16.1748C27.979 16.7219 27.6232 17.4444 27.6232 18.363C27.6023 19.1991 27.9685 19.9939 28.6173 20.5306C29.2766 21.1086 30.1138 21.3977 31.0975 21.3977C32.259 21.3977 33.1799 20.8919 33.881 19.8803H33.9543V21.1086H35.5658V15.6484C35.5658 14.5027 35.2101 13.5944 34.488 12.9441ZM29.9139 19.4777C29.5685 19.23 29.3592 18.8275 29.3592 18.3939C29.3592 17.9088 29.5895 17.5063 30.0395 17.1863C30.5 16.8663 31.0757 16.7012 31.756 16.7012C32.6979 16.6908 33.4306 16.8973 33.9539 17.3102C33.9539 18.012 33.6713 18.621 33.1166 19.1371C32.6142 19.6326 31.9339 19.9113 31.2222 19.9113C30.7512 19.9216 30.2907 19.7668 29.9139 19.4777ZM39.1862 25L44.8162 12.2525H42.9848L40.3792 18.6108H40.3478L37.6793 12.2525H35.848L39.542 20.541L37.4491 25H39.1862Z" fill="#3C4043"/>
<path d="M14.9533 14.7297C14.9533 14.2239 14.9115 13.7182 14.8278 13.2227H7.72229V16.0819H11.793C11.6256 17.0005 11.0814 17.8262 10.2861 18.3423V20.2003H12.7139C14.1371 18.91 14.9533 17.0005 14.9533 14.7297Z" fill="#4285F4"/>
<path d="M7.72119 21.9962C9.75133 21.9962 11.4675 21.3356 12.7128 20.2002L10.285 18.3423C9.60482 18.7965 8.73626 19.0545 7.72119 19.0545C5.75384 19.0545 4.08996 17.7436 3.49348 15.9889H0.992432V17.9088C2.26912 20.417 4.87481 21.9962 7.72119 21.9962Z" fill="#34A853"/>
<path d="M3.49417 15.989C3.18018 15.0704 3.18018 14.0691 3.49417 13.1402V11.2306H0.992725C-0.085303 13.326 -0.085303 15.8032 0.992725 17.8985L3.49417 15.989Z" fill="#FBBC04"/>
<path d="M7.72119 10.0746C8.79904 10.0539 9.83504 10.4565 10.6094 11.1893L12.7651 9.06303C11.3943 7.80376 9.59436 7.1122 7.72119 7.13285C4.87481 7.13285 2.26912 8.72241 0.992432 11.2306L3.49348 13.1505C4.08996 11.3854 5.75384 10.0746 7.72119 10.0746Z" fill="#EA4335"/>
</svg>
