<svg width="54" height="36" viewBox="0 0 54 36" fill="none" xmlns="http://www.w3.org/2000/svg">
<g clip-path="url(#clip0_1217_6650)">
<path d="M0 0.000427246H54V35.9997H0V0.000427246Z" fill="white"/>
<path d="M0 0.000427246H54V18H0V0.000427246Z" fill="#D80027"/>
<path d="M8.80434 8.99999C8.80434 6.37751 10.6475 4.18671 13.1087 3.64913C12.7232 3.56459 12.3296 3.52188 11.9349 3.52173C8.90917 3.52173 6.4566 5.9743 6.4566 8.99988C6.4566 12.0255 8.90928 14.4781 11.9349 14.4781C12.338 14.4781 12.7304 14.4333 13.1087 14.3507C10.6475 13.8134 8.80434 11.6226 8.80434 8.99999ZM15.8479 3.91312L16.2364 5.10882H17.4937L16.4765 5.84784L16.865 7.04354L15.8479 6.30463L14.8306 7.04354L15.2193 5.84784L14.202 5.10882H15.4593L15.8479 3.91312Z" fill="white"/>
<path d="M12.798 6.26099L13.1864 7.45669H14.4437L13.4265 8.1957L13.815 9.3914L12.798 8.65249L11.7808 9.3914L12.1694 8.1957L11.1522 7.45669H12.4095L12.798 6.26099ZM18.8977 6.26099L19.2862 7.45669H20.5435L19.5263 8.1957L19.9148 9.3914L18.8977 8.65249L17.8805 9.3914L18.2692 8.1957L17.2519 7.45669H18.5092L18.8977 6.26099ZM17.7237 9.78269L18.1123 10.9784H19.3695L18.3524 11.7174L18.741 12.9131L17.7237 12.1742L16.7067 12.9131L17.0952 11.7174L16.0781 10.9784H17.3353L17.7237 9.78269ZM13.9719 9.78269L14.3603 10.9784H15.6176L14.6005 11.7174L14.989 12.9131L13.9719 12.1742L12.9547 12.9131L13.3433 11.7174L12.3261 10.9784H13.5833L13.9719 9.78269Z" fill="white"/>
</g>
<defs>
<clipPath id="clip0_1217_6650">
<rect width="54" height="36" fill="white"/>
</clipPath>
</defs>
</svg>
