<svg width="3" height="3" viewBox="0 0 3 3" fill="none" xmlns="http://www.w3.org/2000/svg">
<g clip-path="url(#clip0_170_16577)">
<path d="M2.50045 2.49931C2.50045 2.53246 2.48728 2.56425 2.46384 2.58769C2.4404 2.61113 2.40861 2.6243 2.37546 2.6243H0.625639C0.59249 2.6243 0.560699 2.61113 0.53726 2.58769C0.51382 2.56425 0.500652 2.53246 0.500652 2.49931V1.37443H0.125691L1.41643 0.20105C1.43944 0.180111 1.46944 0.168508 1.50055 0.168508C1.53166 0.168508 1.56165 0.180111 1.58467 0.20105L2.87541 1.37443H2.50045V2.49931ZM1.50055 2.12435L1.92038 1.70452C1.94649 1.67841 1.96721 1.6474 1.98134 1.61328C1.99547 1.57916 2.00275 1.5426 2.00275 1.50566C2.00275 1.46873 1.99547 1.43217 1.98134 1.39805C1.96721 1.36393 1.94649 1.33292 1.92038 1.30681C1.89427 1.2807 1.86326 1.25998 1.82915 1.24585C1.79503 1.23172 1.75846 1.22444 1.72153 1.22444C1.6846 1.22444 1.64803 1.23172 1.61391 1.24585C1.57979 1.25998 1.54879 1.2807 1.52267 1.30681L1.50055 1.32893L1.47843 1.30681C1.45231 1.2807 1.42131 1.25998 1.38719 1.24585C1.35307 1.23172 1.3165 1.22444 1.27957 1.22444C1.24264 1.22444 1.20607 1.23172 1.17195 1.24585C1.13783 1.25998 1.10683 1.2807 1.08072 1.30681C1.0546 1.33292 1.03389 1.36393 1.01976 1.39805C1.00562 1.43217 0.998349 1.46873 0.998349 1.50566C0.998349 1.5426 1.00562 1.57916 1.01976 1.61328C1.03389 1.6474 1.0546 1.67841 1.08072 1.70452L1.50055 2.12435Z" fill="#02957D"/>
</g>
<defs>
<clipPath id="clip0_170_16577">
<rect width="2.12087" height="2.12087" fill="white" transform="scale(1.41436)"/>
</clipPath>
</defs>
</svg>
