<svg width="2" height="2" viewBox="0 0 2 2" fill="none" xmlns="http://www.w3.org/2000/svg">
<g clip-path="url(#clip0_170_15814)">
<path d="M1.66672 0.999531C1.66672 0.907861 1.59172 0.832857 1.50005 0.832857V0.582847C1.50005 0.491177 1.42504 0.416174 1.33337 0.416174H0.66668C0.57501 0.416174 0.500007 0.491177 0.500007 0.582847V0.832857C0.408336 0.832857 0.333333 0.907861 0.333333 0.999531V1.41621H0.444171L0.500007 1.58289H0.583344L0.639179 1.41621H1.36171L1.41671 1.58289H1.50005L1.55588 1.41621H1.66672V0.999531ZM1.33337 0.832857H1.08336V0.582847H1.33337V0.832857ZM0.66668 0.582847H0.916691V0.832857H0.66668V0.582847ZM0.500007 0.999531H1.50005V1.24954H0.500007V0.999531Z" fill="#6A7270"/>
</g>
<defs>
<clipPath id="clip0_170_15814">
<rect width="1.98055" height="1.98055" fill="white" transform="scale(1.00986)"/>
</clipPath>
</defs>
</svg>
